<svg version="1.2" xmlns="http://www.w3.org/2000/svg" viewBox="0 0 1080 1080" width="1080" height="1080">
	<title>New Project</title>
	<style>
		.s0 { fill: #ffffff } 
		.s1 { fill: #500000 } 
		.s2 { fill: #e64242;stroke: #000000;stroke-miterlimit:10;stroke-width: 3 } 
		.s3 { fill: none;stroke: #500000;stroke-miterlimit:10;stroke-width: 3 } 
		.s4 { fill: #eceded;stroke: #000000;stroke-miterlimit:10 } 
		.s5 { fill: #d5e4e4 } 
		.s6 { fill: #f2caca } 
		.s7 { fill: #956666 } 
		.s8 { fill: #f4fffe } 
	</style>
	<g id="Layer 1">
		<g>
			<g>
				<path class="s0" d="m692.1 816.6c-2.3 16.3 9 31.5 25.3 33.8l11.2 1.6c16.4 2.4 31.5-8.9 33.8-25.2l14.3-173c2.3-16.3 1.7-31.1-14.6-33.4l-11.3-1.6c-16.3-2.4-16.1 15.2-18.5 31.5z"/>
				<path class="s1" d="m687.9 815.6c1.6-6.9 3.2-13.9 4.9-20.8q2.5-10.4 5.1-20.8l10.5-41.4 21.2-82.9v0.3l1.6-11.6c0.7-3.9 1.3-7.9 2.9-11.9 0.8-1.9 1.8-4 3.3-5.7 1.5-1.8 3.6-3.2 5.9-3.9 2.3-0.7 4.6-0.8 6.8-0.5 2 0.2 3.8 0.5 5.8 0.8l5.8 0.9c1.9 0.3 4.1 0.8 6.1 1.6 4 1.5 7.7 4.8 9.4 8.8 1.9 3.9 2.4 8.1 2.5 12.2 0.1 4-0.3 8-0.9 11.9-0.8 7.5-1.3 15.4-2 23.1l-2 23.3-3.6 46.5c-1.3 15.6-2.3 31.1-3.4 46.6l-1.6 23.3-0.8 11.8c-0.6 4.3-2 8.4-4.1 12.2-4.3 7.4-11.6 13.1-20.1 15.4-4.1 1.2-8.7 1.4-12.8 0.9l-11.7-1.6c-8.7-1.1-16.9-5.9-22.3-13-2.6-3.5-4.6-7.6-5.8-11.9-1.1-4.2-1.4-8.9-0.8-13.1v-0.3zm8.6 1.8c-1 6.7 0.6 13.4 4.6 18.9 3.9 5.4 10 9.3 16.7 10.3l11.5 1.8c3.5 0.6 6.9 0.4 10.2-0.4 6.7-1.5 12.8-5.9 16.4-11.8 1.8-3 3.1-6.3 3.6-9.8l1.1-11.4 2.3-23.3c1.4-15.5 3-30.9 4.3-46.5l4-46.5 1.9-23.2c0.7-7.8 1.1-15.4 1.9-23.4 0.5-3.8 0.8-7.6 0.7-11.3-0.1-3.7-0.6-7.4-2.1-10.5-1.5-3.2-4-5.5-7.3-6.7-1.6-0.6-3.3-0.9-5.2-1.2l-5.8-0.7c-1.9-0.3-3.9-0.6-5.7-0.7-1.7-0.2-3.4-0.1-4.8 0.4-2.9 0.9-4.8 3.6-6 6.9-2.4 6.8-2.6 14.7-3.7 22.5v0.1l-0.1 0.1-18.9 83.4-9.6 41.7q-2.4 10.4-4.9 20.8c-1.6 6.9-3.4 13.7-5.1 20.5z"/>
			</g>
			<path class="s2" d="m777.2 763.6c0 0 6.4 19.9 3 25.4-1.4 2.2-8.3 2.8-10.3 1.2-4.5-3.5-2.7-22.6-2.7-22.6q-5.4 1.6-11.3 2.2c0 0 5.5 25.8 0 31.4-2.2 2.2-10.2 2.2-12.4 0-5.6-5.6 0-31.4 0-31.4-4.4-0.4-8.6-1.3-12.6-2.6 0 0-0.2 17.9-4.5 21.3-2 1.7-8.8 0.1-10.2-2.1-3.2-5 4.9-23.4 4.9-23.4-15.2-8.2-25.3-22.8-25.3-39.5 0-25.7 24.1-46.6 53.9-46.6 29.7 0 53.8 20.9 53.8 46.6 0 17-10.5 31.9-26.3 40.1z"/>
			<g>
				<path class="s0" d="m308 791.5c-3.8 16 6 32.1 22 36l11.1 2.6c16 3.9 32.1-6 36-22 0 0 13.5-101.3 40.6-169.6 6.1-15.4-6.1-32.2-22.1-36l-11-2.6c-16-3.9-20.9 13.7-24.3 29.8-16.4 77.1-52.3 161.8-52.3 161.8z"/>
				<path class="s1" d="m305.3 790.4c3.5-8.6 6.8-17.3 10.1-26 3.4-8.7 6.5-17.4 9.7-26.2q4.8-13.1 9.3-26.3 4.5-13.2 8.6-26.5l4-13.4 3.8-13.4 3.5-13.4c1.2-4.5 2.2-9.1 3.2-13.6 1.1-4.5 2.1-9.2 3.5-13.7 1.4-4.6 3.1-9.2 6.1-13.3 1.5-2.1 3.4-4 5.7-5.3 2.4-1.3 5.1-1.9 7.7-1.9 2.7 0.1 5.1 0.8 7.3 1.3l6.8 1.7c9.5 2 18.3 8.3 22.9 17 2.3 4.3 3.6 9.3 3.2 14.3-0.1 1.2-0.2 2.4-0.5 3.6-0.3 1.3-0.7 2.5-1.1 3.6l-2.4 6.5-2.5 6.5-2.2 6.6c-1.6 4.4-3 8.9-4.3 13.3-1.4 4.5-2.8 8.9-4 13.4-1.2 4.5-2.6 8.9-3.7 13.5-4.6 18-8.6 36.2-12.1 54.5-3.4 18.3-6.5 36.7-8.9 55.1v0.1l-0.1 0.1c-1 4.5-3.1 8.9-6 12.6-2.9 3.6-6.6 6.6-10.8 8.8-4.2 2.1-8.9 3.2-13.6 3.4-2.3 0-4.7-0.2-7-0.7l-6.5-1.4c-2.2-0.5-4.2-1-6.5-1.5q-3.4-0.9-6.6-2.6c-4.2-2.2-8-5.3-10.9-9.1-2.9-3.8-4.9-8.2-6-12.9q-0.7-3.5-0.7-7.1 0-1.8 0.2-3.6c0.1-0.6 0.2-1.3 0.3-1.9l0.4-1.8zm5.5 2l-0.3 1.3-0.2 1.4q-0.2 1.5-0.3 3 0 2.9 0.5 5.9c0.8 3.8 2.4 7.6 4.8 10.8 2.4 3.2 5.4 5.9 9 7.8q2.6 1.4 5.5 2.2l6.3 1.6 6.3 1.6c2 0.4 4 0.6 6 0.6 4.1 0 8.1-0.9 11.8-2.7 3.6-1.7 6.9-4.3 9.5-7.4 2.6-3.2 4.5-6.9 5.4-10.9v0.2c2.8-18.5 6.1-36.9 9.9-55.2 3.6-18.3 7.7-36.5 12.5-54.6 2.3-9 4.7-18.1 7.5-27 1.3-4.5 2.7-8.9 4.2-13.4l2.2-6.6 2.5-6.6 2.4-6.5c0.4-1.2 0.7-2.2 0.9-3.2 0.3-1.1 0.4-2.2 0.5-3.2 0.3-4.4-0.9-8.8-3-12.6-4.3-7.8-12.2-13.3-21-15l-6.8-1.6c-2.3-0.5-4.5-1.1-6.4-1.1-4.2-0.1-7.7 2.2-10.1 5.7-2.5 3.5-4.1 7.8-5.3 12.2-1.3 4.3-2.2 8.8-3.2 13.4-1 4.6-1.9 9.2-3 13.7l-3.3 13.7-3.6 13.5-3.8 13.5q-4 13.5-8.3 26.9-4.3 13.3-8.9 26.6c-3.1 8.7-6.4 17.5-9.7 26.2-3.4 8.7-6.9 17.2-10.5 25.8z"/>
			</g>
			<g>
				<path class="s0" d="m692.7 739.4c-38 5-78 7-116.9 7q-22.8 0-43.8-1.2-7.4-0.4-14.6-1c-88.1-7.2-149.6-31.7-179.9-76q-7-10.2-11.8-21.8c-5.3-13-8.4-27.3-9.4-43q-0.3-5-0.3-10.3c0-80.9-45.2-122.3 84.8-157.4 38-10.3 90.8-20 164.1-29.9q5.4-0.8 11-1.5c41.2-5.5 76.4-8.5 106.8-9.3 175.4-4.8 185 63.8 206.3 152.9q1.8 7.4 3 14.5c18.6 114.1-80.3 161-199.3 177z"/>
				<path class="s1" d="m693.6 746.2c0 0-6 0.7-17.6 1.9-11.5 1.1-28.4 2.5-49.9 3.2-21.6 0.8-47.6 1.2-77.7-0.1q-5.6-0.3-11.4-0.7-2.9-0.2-5.9-0.4-2.9-0.3-5.8-0.5-3-0.3-6-0.5l-1.5-0.1-1.6-0.2-3-0.3q-6.1-0.7-12.3-1.4c-16.9-2.1-34.3-5.1-52.3-9.6-18-4.5-36.5-10.6-54.5-19.4-8.9-4.6-17.9-9.5-26.2-15.8l-3.2-2.3c-1-0.8-2-1.6-3-2.5-2-1.7-4-3.3-6-5.1q-2.8-2.7-5.7-5.5-1.4-1.4-2.7-2.9l-2.7-3c-14.1-16.1-23.7-36.8-27.6-58.7-1-5.5-1.7-11.1-2.1-16.7-0.2-2.9-0.2-5.6-0.3-8.5-0.1-2.8-0.1-5.6-0.1-8.4-0.1-11.2-1.2-22.5-2.7-33.8-1.5-11.3-3.4-22.8-4.3-34.5-1-11.6-0.5-24 4.6-35.1 2.6-5.5 6.2-10.5 10.4-14.8 4.4-4.3 9.2-8 14.3-11.3 10.2-6.4 21.4-11.2 32.7-15.4 22.8-8.2 46.4-14.1 70.3-19.3 23.8-5.2 47.9-9.4 72.1-13.6 48.3-7.8 96.7-15.4 145-18.9q9-0.6 18.1-1.1c3-0.1 5.9-0.3 9-0.3l9-0.3c11.9-0.3 24.1-0.1 35.9 0.4 12 0.6 23.8 1.6 35.6 3.5 11.7 1.9 23.3 4.4 34.6 8.2 11.2 3.8 22.1 8.8 32 15.4 9.9 6.5 18.8 14.7 25.9 24 7.3 9.2 12.8 19.4 17.2 29.7 4.5 10.3 7.9 20.7 10.9 30.9 3 10.3 5.5 20.5 7.9 30.4q0.9 3.7 1.9 7.4l0.9 3.7 0.4 1.8 0.1 0.4 0.2 0.8 0.2 0.9q0.8 3.7 1.5 7.4l0.8 3.6 0.4 1.8c-0.1-0.3 0.1 0.9 0.1 1l0.1 0.4 0.1 1q0.6 3.6 1.1 7.3c0.4 2.3 0.5 5.1 0.7 7.6 0.6 5.3 0.4 10.3 0.5 15.3-0.2 10.1-1.5 20-3.8 29.6-4.6 19-14.1 36.1-25.7 49.5-11.5 13.7-25.1 23.8-38.4 31.9-13.3 8-26.5 13.9-38.9 18.6-12.4 4.6-24 8.1-34.5 10.9-21.2 5.4-38 8.2-49.4 10-5.8 0.9-10.2 1.5-13.1 1.9-3 0.4-4.5 0.6-4.5 0.6zm-1.8-13.7c0 0 1.5-0.2 4.4-0.6 2.9-0.5 7.2-1.1 12.7-2.1 11.2-2 27.5-5.1 47.7-10.7 10.1-2.9 21.2-6.5 32.8-11.1 11.6-4.7 24-10.3 36.1-17.8 3-2 6.1-3.8 9-6q2.3-1.6 4.5-3.3 2.2-1.7 4.4-3.5c5.7-4.7 11.4-9.9 16.4-15.9 10.4-11.7 18.2-26.3 22.7-42.7 2.1-8.3 3.3-17 3.7-26 0-4.5 0.2-9.1-0.2-13.6-0.2-2.3-0.2-4.4-0.5-6.9q-0.5-3.7-1-7.3l-0.1-1v-0.4c-0.1-0.3 0.1 0.6 0 0l-0.4-1.8-0.7-3.7q-0.7-3.6-1.4-7.3l-0.2-1c0 0-0.1-0.6 0-0.2l-0.1-0.4-0.4-1.9-0.9-3.7q-0.8-3.7-1.7-7.4c-2.3-9.9-4.6-20-7.3-29.9-2.7-10-5.8-19.9-9.7-29.5-4-9.5-8.8-18.8-15.1-27-6.2-8.3-13.7-15.7-22.4-21.8-8.7-6.1-18.5-10.9-28.9-14.7-10.4-3.7-21.4-6.4-32.6-8.5-11.2-2.1-22.7-3.3-34.3-4.3-11.7-0.7-23.3-1.2-35.2-1.2h-9c-2.9 0-5.9 0.1-8.9 0.2-5.9 0.1-11.9 0.4-17.9 0.7-47.8 2.4-96.3 8.9-144.7 15.7-24.2 3.5-48.3 7.6-72.1 12.3-23.8 4.9-47.4 10.4-70 18.5-11.2 4.1-22.3 8.7-32.2 15-5 3.1-9.7 6.7-13.9 10.7-4 4.2-7.5 8.9-9.9 14-4.9 10.5-5.4 22.4-4.4 33.8 0.9 11.5 2.9 22.9 4.3 34.3 1.6 11.4 2.7 22.8 3 34.1 0 2.9 0.1 5.6 0.2 8.4 0.2 2.8 0.1 5.7 0.4 8.3 0.4 5.5 1.2 11 2.2 16.3 4 21.5 13.8 41.2 27.8 56.4l2.6 2.8q1.3 1.5 2.7 2.8 2.8 2.6 5.6 5.2c1.9 1.6 4 3.2 5.9 4.8 1 0.7 2 1.5 3 2.3l3.1 2.1c8.1 5.9 17 10.5 25.7 14.8 17.7 8.1 35.9 13.5 53.6 17.4 17.7 3.9 35.1 6.3 51.4 7.9q6.3 0.5 12.4 1l3 0.3h0.8l0.6 0.1h1.5q3 0.2 6 0.4 2.9 0.1 5.9 0.3 2.8 0.1 5.7 0.2 5.7 0.2 11.2 0.4c29.6 0.6 55.5-0.4 76.7-1.6 21.3-1.3 37.8-3 49.1-4.4 11.2-1.3 17.3-2.3 17.3-2.3z"/>
			</g>
			<path class="s1" d="m569.4 465.5c-6.7 20.5-29.8 41.8-33.5 47.9-17.8 30-63.6 51.2-75.5 46.9-25-9.1-41.2-39.3-46.3-39.9-3.9-0.5-10.5-58.7-13.3-84.7 38-10.3 90.8-20 164.1-29.9-1.7 21.4 14.9 28.2 4.5 59.7z"/>
			<g>
				<path class="s0" d="m774.3 655.9c28.6 75.4 32 171.4 32 171.4 3 16.2 18.6 26.9 34.8 23.9l11.2-2.1c16.1-3 26.8-18.6 23.8-34.8 0 0-23-78.3-32-171.4"/>
				<path class="s1" d="m775.5 655.4c1.6 3.3 3.3 6.6 4.7 10 1.5 3.4 3 6.8 4.3 10.2 1.3 3.5 2.7 6.9 3.9 10.4 1.2 3.5 2.4 7 3.5 10.5 2.2 7 4.2 14.1 6 21.3 0.9 3.5 1.8 7.1 2.6 10.7l2.3 10.8c1.4 7.2 2.8 14.5 3.9 21.8 0.6 3.6 1.2 7.2 1.6 10.9l1.4 10.9c0.8 7.4 1.5 14.7 2.1 22l0.8 11c0.2 3.8 0.4 7.4 0.6 11.2l-0.1-1c0.6 3.3 1.9 6.5 3.9 9.2 1.9 2.7 4.5 5 7.5 6.7 2.9 1.6 6.2 2.7 9.6 2.9q2.5 0.2 5.1-0.2l6.3-1 6.3-1.2c0.6-0.1 0.9-0.2 1.2-0.3 0.4 0 0.8-0.2 1.2-0.3q1.2-0.4 2.4-0.9c3.1-1.4 6-3.5 8.2-6.2 2.2-2.6 3.9-5.7 4.8-9 1-3.4 1.2-6.9 0.6-10.4l0.1 0.6c-0.9-3.6-1.8-7.2-2.7-10.7l-2.6-10.7q-2.5-10.7-4.8-21.4c-1.5-7.2-2.8-14.4-4.2-21.6-1.3-7.2-2.5-14.3-3.7-21.6q-0.9-5.4-1.7-10.8l-1.5-10.8c-0.9-7.3-2-14.5-2.7-21.8-0.8-7.2-1.5-14.5-2.1-21.8-0.7-7.2-1-14.5-1.5-21.8l2.6-0.3c1.1 7.2 2.1 14.4 3.3 21.6 1.2 7.2 2.3 14.3 3.7 21.5 0.6 3.5 1.2 7.1 1.9 10.7l2 10.7c1.5 7.1 2.9 14.2 4.4 21.3 1.5 7.1 3.1 14.1 4.7 21.2q2.5 10.6 5.1 21.1 2.6 10.6 5.4 21l2.9 10.5c1 3.4 2 6.9 3.1 10.3v0.2l0.1 0.4c1 5.1 0.9 10.6-0.4 15.7-1.3 5.1-3.7 9.9-7.1 14.1-3.3 4-7.6 7.4-12.5 9.7q-1.8 0.8-3.7 1.5c-0.6 0.2-1.2 0.4-1.9 0.6-0.7 0.2-1.5 0.4-1.9 0.5l-6.6 1.3-3.2 0.7c-1.2 0.2-2 0.4-3.5 0.6-2.6 0.4-5.3 0.6-8 0.4-5.3-0.3-10.6-1.8-15.3-4.4-4.7-2.6-8.9-6.2-12-10.6-3.2-4.3-5.4-9.4-6.4-14.7l-0.1-0.5v-0.5c-0.2-3.5-0.4-7.2-0.6-10.7l-0.9-10.8c-0.6-7.2-1.4-14.4-2.2-21.6-0.8-7.2-1.7-14.3-2.6-21.5-1-7.1-1.9-14.3-3-21.5l-1.7-10.7c-0.6-3.5-1.1-7.1-1.7-10.7-0.6-3.5-1.3-7.1-1.9-10.6l-2.1-10.7c-0.6-3.5-1.4-7.1-2.2-10.6-0.7-3.6-1.5-7.1-2.3-10.6-0.9-3.5-1.6-7.1-2.5-10.6l-2.6-10.7z"/>
			</g>
			<path class="s1" d="m892 562.4c-18.7 8.1-37.6 16.2-55.3 23-64.2 24.5-106.2 33.8-135.4 26.8-29.2-7 10.5-80.6-10.5-135.4-8.7-22.8-9.8-53.6-8.1-81.8 175.4-4.8 185 63.8 206.3 152.9q1.8 7.4 3 14.5z"/>
			<path class="s1" d="m562.1 524.8c-10 9.9-12.8 39.5-28.9 48.3-1.4 0.9-27.6 35.6-9.2 42.2 18.4 6.6 34.1 19.9 59.1 30.4 25 10.5 56.5-43.4 63.1-71 6.6-27.6-17.1-60.4-38.1-59.1-21 1.3-37.7 0.9-46 9.2z"/>
			<path class="s3" d="m847.4 462.3c0 0 42.2 21.4 56.8 32.8 29.4 23.2 33.4 60.4 41.7 60.4 8.2 0-9.3 2.7-9.3 2.7 0 0-33.3-53.2-45.7-59.4-12.5-6.2-25.1-5.1-25.1-5.1"/>
			<path class="s1" d="m954.1 600c0 0 3.1-17.4 1.5-31.7-1.2-10.5-5-19.4-14.5-18.5-12.3 1.3-18 21.2 0.7 50.7 1.1 1.8 1.4-13.9 2.9-11.9 2.6 3.5 5.7 7.4 9.4 11.4z"/>
			<path class="s4" d=""/>
			<g>
				<path class="s0" d="m410.4 655.2c1.9 43.6 7.4 174.2 7.4 174.2 0.7 16.5 14.6 29.3 31.1 28.6l11.3-0.5c16.5-0.7 29.3-14.6 28.6-31.1 0 0-15.3-60-7.4-174.2"/>
				<path class="s1" d="m411.7 655.1c0.9 11.7 1.9 23.3 2.7 34.9l2.5 34.9q1.2 17.4 2.3 34.8l2.2 34.9 2 34.7c0.3 5 2 9.4 4.9 13.1 2.9 3.8 6.8 6.6 11.2 8.2 2.2 0.7 4.5 1.2 6.8 1.3 2 0.1 5.3-0.2 8.1-0.3 2.9-0.2 6.2-0.3 8.1-0.6 2.3-0.4 4.5-1.1 6.5-2.1 4.1-2 7.6-5.2 10-9.1 2.3-4 3.4-8.5 3.2-13.1l0.2 1.3c-0.9-3.9-1.6-7.4-2.3-11.1-0.6-3.7-1.2-7.4-1.8-11-1.1-7.4-1.9-14.7-2.7-22-0.7-7.4-1.3-14.7-1.8-22.1-0.2-3.6-0.4-7.3-0.5-11-0.1-3.7-0.3-7.3-0.3-11q-0.1-11 0.2-22.1c0.2-7.3 0.8-14.6 1.2-21.9 0.2-3.7 0.7-7.4 1-11 0.4-3.7 0.8-7.3 1.2-10.9 1-7.3 2.1-14.6 3.5-21.8l2.6 0.2q0.3 5.5 0.5 10.9c0.2 3.7 0.3 7.3 0.4 11 0.2 3.6 0.3 7.3 0.4 10.9 0.1 3.6 0.2 7.3 0.4 10.9l0.3 10.9c0.1 3.6 0.3 7.2 0.4 10.8l0.4 10.9c0.2 3.6 0.4 7.2 0.6 10.8 0.1 3.6 0.3 7.2 0.5 10.8 0.2 3.6 0.4 7.2 0.6 10.8 0.3 3.6 0.5 7.2 0.8 10.8l0.9 10.8c0.7 7.1 1.5 14.3 2.5 21.4 0.5 3.5 1.1 7 1.7 10.6 0.6 3.4 1.3 7.1 2 10.2l0.2 0.7v0.6c0.3 7.1-1.5 14.3-5.3 20.4-3.7 6-9.2 10.9-15.6 13.9-3.2 1.5-6.6 2.5-10.1 3-3.8 0.5-6.4 0.3-9.4 0.5-2.9 0-5.5 0.3-9.3 0.1-3.5-0.2-6.9-0.9-10.2-2.1-6.6-2.5-12.4-6.8-16.5-12.5-4-5.6-6.4-12.6-6.6-19.3l-1-35.1-0.8-34.9q-0.4-17.5-0.7-34.9l-0.5-35c-0.1-11.6-0.2-23.3-0.2-34.9z"/>
			</g>
			<path class="s1" d="m673.7 738.2c-38 5.1-78.1 7.1-117 7.1q-22.8 0-43.7-1.2c-4.7-17.1-7.7-34.8-2.4-40.1 11.3-11.2 40.5-39.3 73-39.3 32.6 0 80.8 6.7 87.6 23.6 3.8 9.7 3.3 31.9 2.5 49.9z"/>
			<path class="s1" d="m399.5 633.3c-4.5 11.2-11.2 37-37 28-9.6-3.3-18.1 0.7-25 6.9q-7-10.2-11.8-21.8c-5.3-13-8.4-27.3-9.4-43 24.1-12.9 55.1-27 63-18.4 13.5 14.6 24.7 37.1 20.2 48.3z"/>
			<g>
				<g>
					<path class="s5" d="m206.7 341.5c0 0-90.3-58.5-11.6-121.5-5.4 86 54.5 83.1 54.5 83.1"/>
					<path class="s1" d="m205.8 342.9c-2.8-1.5-5.5-3.1-8.1-4.9-2.6-1.8-5.2-3.6-7.7-5.6-2.5-2-4.9-4.1-7.2-6.3-2.4-2.2-4.6-4.5-6.7-7l-3.1-3.7-3-3.9q-2.8-4-5.2-8.3c-1.6-3-3-6-4.2-9.2-1.2-3.1-2.2-6.4-2.7-9.8-0.2-0.8-0.4-1.7-0.5-2.5l-0.3-2.6-0.2-2.6c-0.1-0.8 0-1.7-0.1-2.6-0.1-3.4 0.3-6.9 0.9-10.3l1.2-5.1 1.6-4.9c0.5-1.7 1.4-3.2 2.1-4.7 0.7-1.6 1.4-3.2 2.3-4.6l2.6-4.3q1.4-2.1 2.9-4.1c1.9-2.8 4.3-5 6.7-7.4 2.4-2.2 5.2-4 7.9-5.8 2.9-1.6 5.9-3 9.1-4l4.1-1.3-1.4 2.7q0.3 3.5 0.6 7c0.1 2.3 0.4 4.6 0.6 6.9 0.2 2.3 0.6 4.6 0.8 6.8 0.3 2.3 0.7 4.5 1 6.8 0.5 2.2 0.9 4.4 1.4 6.6 0.6 2.2 1 4.4 1.7 6.5 0.6 2.1 1.5 4.2 2.2 6.2 0.4 1.1 0.9 2 1.3 3.1q0.6 1.5 1.4 2.9c1 2 2.2 3.8 3.3 5.6l1.9 2.7c0.7 0.9 1.4 1.7 2.1 2.5 2.8 3.3 6 6.2 9.6 8.7 1.9 1.1 3.7 2.3 5.7 3.3 1.9 1 4 1.8 6.1 2.7q3.1 1.1 6.4 1.9c2.2 0.5 4.5 0.9 6.6 1.1l0.1 3.4c-2.5 0.3-4.9 0.3-7.4 0.1-2.5-0.1-4.9-0.5-7.3-1q-3.7-0.8-7.2-2.2-3.5-1.3-6.8-3.2c-2.2-1.2-4.3-2.6-6.3-4.1-2-1.6-3.8-3.3-5.6-5.2-0.9-0.9-1.7-1.8-2.5-2.8l-2.4-3c-1.4-2.1-2.8-4.2-3.9-6.4q-0.9-1.7-1.7-3.4c-0.5-1.1-1.1-2.3-1.5-3.4-0.9-2.4-1.7-4.7-2.4-7.1-0.7-2.4-1.2-4.8-1.6-7.2-0.5-2.4-0.7-4.8-1.1-7.2-0.1-2.5-0.3-4.9-0.4-7.3 0-2.4 0.1-4.9 0.2-7.3q0.2-3.6 0.6-7.1 0.5-3.6 1.2-7.1h-0.1l2.8 1.4c-1.5 3-3.3 5.6-5.1 8.1-1.6 2.6-3.4 4.9-5.2 7.3-1.6 2.4-3.5 4.6-5.1 7l-2.5 3.4-2.2 3.6c-0.8 1.2-1.3 2.4-1.9 3.7-0.6 1.2-1.3 2.5-1.7 3.8l-1.4 3.8-1 4c-0.5 2.7-1 5.4-1 8.1 0 0.7-0.1 1.3-0.1 2l0.1 2.1 0.1 2c0.1 0.7 0.2 1.4 0.3 2.1 0.2 1.3 0.4 2.7 0.7 4.1 0.4 1.3 0.6 2.7 1.1 4 0.8 2.7 1.8 5.4 2.9 8 0.7 1.3 1.2 2.7 1.9 3.9l2.1 3.9 2.3 3.7 2.5 3.7c1.8 2.4 3.6 4.8 5.5 7.1 1.9 2.3 3.9 4.6 6 6.8 4.1 4.4 8.5 8.7 13.1 12.6z"/>
				</g>
				<g>
					<path class="s0" d="m476.6 369.7c-8.9 9-35.2 8.4-57.9 5.9 9.3 22.9 14.5 48.9 14.5 76.3 0 30.9-6.5 59.8-18 84.6-22.8 49.3-64.9 82.4-113.2 82.4-51.5 0-96.1-37.8-117.6-92.9-5.7-14.7-9.8-30.7-11.9-47.5-1.1-8.7-1.7-17.5-1.7-26.6q0-5.5 0.3-10.9 0.2-3.2 0.4-6.4c2-24.2 8-46.8 17.2-66.7-19.2 2.5-44.4 4-52.4-3.9-4-4-14.4-16.1-3.1-28 10.4-11 52 4.1 69.2 8.6 20.2-28.3 50.4-52.6 81.5-58.1 5.6-1 11.2-1.5 17-1.6h1.1q0.7 0 1.4 0c38.2 0.5 80.2 32.9 103.9 66.4 23.9-12.5 54-23.3 69.3-12.2 13.8 10 5.4 25.2 0 30.6z"/>
					<path class="s1" d="m479.6 373c-0.7 0.7-2.4 2.1-3.6 2.9-1.3 0.8-2.6 1.4-3.9 2-2.7 1-5.4 1.6-8.1 2-5.2 0.8-10.4 0.9-15.5 0.8-5.1-0.1-10.1-0.6-15.1-1.2-5-0.5-9.9-1.4-14.8-2.2l1.7-2.3c5.2 12.3 9.2 25.1 11.8 38.2 2.6 13.2 4 26.5 4.1 40 0.1 13.3-1 26.8-3.4 40-2.4 13.3-6.2 26.3-11.3 38.8-5.2 12.4-11.6 24.5-19.5 35.6-7.9 11-17.1 21.2-27.8 29.8-10.6 8.6-22.7 15.6-35.7 20.3-13 4.6-27.1 6.8-40.8 6.3-14.1-0.4-27.7-3.7-40.5-9.2-12.7-5.5-24.4-13.2-34.6-22.4-20.4-18.4-35.3-42.4-44.7-67.8-4.8-12.8-8.1-26-10.1-39.5-2-13.4-2.5-27-1.8-40.6 0.2-3.4 0.5-6.7 0.8-10l0.6-5.1 0.7-5c1.1-6.7 2.5-13.3 4.2-19.8 3.5-13 8.4-25.7 14.8-37.4l1.8 2.3q-9.7 2.7-19.6 3.8c-6.7 0.7-13.4 1.1-20.5 0.2-3.5-0.4-7-1.1-10.7-2.8-1.8-0.8-3.8-2.1-5.4-3.7-1.2-1.3-2.4-2.7-3.5-4.2-2.2-3-4.2-6.5-5.1-10.5-1-4-0.6-8.6 1.1-12.5 0.9-1.9 2-3.6 3.3-5.1 0.6-0.8 1.2-1.4 2-2.2 0.3-0.3 1.1-0.9 1.5-1.2q0.7-0.5 1.5-0.9c4-2.1 7.8-2.4 11.4-2.5 3.6 0 7.1 0.4 10.5 0.9q5 0.8 9.9 2c6.5 1.6 12.8 3.5 19 5.6 6.3 2.1 12.4 4.5 18.6 6.6l-1.8 0.6c5.5-8.9 12.2-17.2 19.4-24.9 7.3-7.7 15.4-14.6 24.3-20.6 8.9-6 18.7-10.8 29.2-14 5.2-1.6 10.6-2.6 16-3.2q4-0.5 8.1-0.6c1.3-0.1 2.7-0.1 4.2-0.1h2l2 0.1c11.2 0.6 21.7 3.5 31.7 7.8 9.9 4.3 19.2 9.7 27.7 16.1 8.6 6.3 16.5 13.4 23.7 21.1 7.2 7.8 13.8 16.1 19.3 25l-2.1-0.5c7.9-4.4 16.1-8.4 24.7-11.8 8.5-3.2 17.5-6 27.1-6.6 4.8-0.2 9.8 0.1 14.6 1.9 2.4 0.9 4.9 2.3 6.8 3.8 2.2 1.6 4 3.6 5.5 6 1.5 2.4 2.4 5.2 2.6 8 0.3 2.8 0 5.5-0.6 8.1-0.7 2.6-1.7 5-2.9 7.3-1.3 2.2-2.7 4.3-4.7 6.4zm-6-6.4c1.2-1.2 2.5-2.8 3.5-4.4 1-1.7 1.8-3.4 2.4-5.2 1.1-3.6 1-7.2-0.7-10.2-0.8-1.5-2-2.9-3.3-4.1-1.6-1.3-3.1-2.3-4.9-3-3.6-1.6-7.8-2.1-12-2.2-8.5 0.1-17.3 2.2-25.7 5-8.4 2.7-16.7 6.3-24.7 10.3l-1.3 0.6-0.9-1.1v-0.1c-6.5-7.9-13.5-15.5-21.1-22.4-7.5-6.9-15.5-13.3-23.9-18.9-8.4-5.6-17.2-10.7-26.5-14.3-9.2-3.8-19-6.4-28.6-6.8l-1.9-0.1-1.9-0.1c-1.1 0-2.4 0-3.6 0.1q-3.7 0.1-7.4 0.5c-5 0.5-9.8 1.5-14.6 2.7-9.5 2.6-18.6 6.9-27.3 12-4.3 2.6-8.4 5.5-12.5 8.6-4.1 3-7.9 6.3-11.7 9.7q-5.8 5.1-11 10.7-5.2 5.7-10.1 11.6l-0.7 0.9-1.1-0.2c-6.6-1.3-12.9-2.8-19.3-4.3-6.3-1.5-12.6-2.9-19-4-6.3-1.1-12.6-1.9-18.6-1.6-2.9 0.1-5.7 0.7-7.5 1.7q-0.3 0.2-0.6 0.4c-0.3 0.2-0.1 0.1-0.4 0.4-0.4 0.3-0.9 0.9-1.3 1.4q-1.2 1.6-1.9 3.2c-0.9 2.2-1 4.4-0.5 6.8 0.6 2.3 1.9 4.8 3.6 7 0.9 1.1 1.8 2.2 2.8 3.2 0.8 0.8 1.5 1.4 2.7 1.9 2.2 1.2 5.1 1.8 8.1 2.4 6 1 12.4 1.3 18.8 1.4 6.4 0.1 12.9 0 19.5 0.1l2.8-0.6-1.1 2.9c-4.5 12.4-8.2 24.9-10.5 37.7-1.2 6.4-2.1 12.8-2.7 19.3l-0.4 4.8-0.3 4.8c-0.1 3.3-0.3 6.6-0.3 9.8-0.3 12.9 0.8 25.8 2.8 38.5 2 12.7 5.3 25.2 9.6 37.2 4.5 12.1 10.1 23.7 17.1 34.4 6.9 10.8 15.1 20.7 24.5 29.2 9.5 8.5 20.1 15.6 31.6 20.7 11.5 5.2 24 8.2 36.4 8.7 12.7 0.6 25.2-1.3 37.2-5.4 12-4 23.2-10.3 33.3-18.1 10.1-7.8 19-17.3 26.6-27.6 7.6-10.4 14-21.7 19.1-33.6 5.2-11.9 9-24.3 11.7-37.1 2.6-12.7 4.1-25.6 4.4-38.7 0.2-13-0.7-26.2-2.9-39-2.2-12.9-5.5-25.7-10.2-37.9l-0.9-2.5 2.7 0.2c4.9 0.2 9.8 0.3 14.8 0.3 4.9-0.1 9.8-0.2 14.6-0.6 4.8-0.4 9.6-1 14-2.2 2.2-0.5 4.4-1.2 6.3-2 1-0.4 1.8-0.9 2.7-1.3 0.9-0.6 1.2-0.6 2.3-1.6z"/>
				</g>
				<path class="s1" d="m204.9 339.6c20.2-28.2 47.9-47.6 79-53.1 5.6-1 11.2-1.5 17-1.6h1.1q0.7 0 1.4 0c2 9.2 3.1 18.8 3.1 28.6 0 43.5 1.6 125-50.4 122.9-43.6-1.8-41.1 3.9-70.8 5.5-4.8 0.3-9.5-0.3-14.2-0.9q0.2-3.2 0.4-6.4c2-24.2 8-46.8 17.2-66.7z"/>
				<g>
					<path class="s5" d="m358.9 312.9c0 0 52.9-28.3 17-88.2 110.4 38.3 24.4 125.6 24.4 125.6"/>
					<path class="s1" d="m358.1 311.5c1.6-1.2 3.2-2.5 4.8-3.8 1.6-1.3 3-2.8 4.5-4.2 1.4-1.4 2.8-3 4.1-4.5q1.9-2.3 3.7-4.8c2.3-3.3 4.2-6.8 5.8-10.4l1.1-2.8 0.9-2.8c0.5-1.9 1-3.8 1.4-5.8 0.2-0.9 0.3-1.9 0.4-2.9 0.1-1 0.2-2 0.2-3 0-1 0.1-2 0.1-3v-3q-0.2-3-0.7-5.9c-0.3-2-0.6-4-1.1-6-0.5-2-1.1-3.9-1.7-5.9-0.5-2-1.4-3.9-2-5.8-0.8-1.9-1.6-3.8-2.4-5.7q-1.4-2.8-2.7-5.7l-3-2.6 4.9 0.2c3.6 0.2 7.1 0.6 10.6 1.2q5.2 1.2 10.3 2.9 2.6 1 5 2.1c1.7 0.7 3.4 1.4 5 2.3 1.6 0.9 3.1 1.9 4.7 2.8 1.6 0.9 3 2.2 4.5 3.3 3.1 2.1 5.7 4.9 8.4 7.6l3.6 4.5c1.3 1.5 2.2 3.3 3.2 4.9 1.1 1.6 1.9 3.4 2.7 5.2l1.3 2.7c0.3 0.9 0.6 1.9 0.9 2.8 0.6 1.9 1.3 3.7 1.5 5.7 0.4 1.9 0.9 3.8 0.9 5.8 0.5 3.8 0.4 7.7 0 11.5-0.4 3.8-1.1 7.5-2.1 11q-1.5 5.4-3.6 10.4-2.2 5-4.9 9.6-2.6 4.7-5.7 9-3 4.3-6.4 8.3c-2.2 2.8-4.6 5.3-7.1 7.8-2.4 2.4-5 4.7-7.7 7l-2.4-2.3c2-2.7 3.8-5.6 5.6-8.4q2.7-4.2 5.2-8.5c1.7-2.9 3.2-5.8 4.7-8.8q2.2-4.4 4-8.9c2.4-6 4.4-12.1 5.5-18.1 0.5-3.1 0.8-6.1 0.9-9.1 0.1-3 0-5.9-0.5-8.8-0.1-1.4-0.5-2.8-0.9-4.2-0.2-1.4-0.8-2.7-1.2-4.1-0.3-0.6-0.5-1.3-0.8-2l-0.9-1.9c-0.6-1.3-1.3-2.6-2.1-3.7-0.9-1.2-1.4-2.5-2.4-3.6l-2.8-3.4c-2.2-2.1-4.1-4.3-6.5-6.2-2.3-2.1-4.8-4-7.2-5.9-2.5-2-5.3-3.7-7.8-5.7-2.7-1.8-5.4-3.6-8.2-5.6-2.8-1.9-5.6-3.8-8.4-6.1l2-2.4q1.8 2.7 3.5 5.4c1 1.9 2.1 3.8 3.1 5.7 1 2 1.9 3.9 2.7 6 0.8 2 1.7 4.1 2.2 6.2 0.7 2.1 1.2 4.2 1.6 6.4 0.5 2.2 0.8 4.4 1 6.6l0.2 3.4c0 1.1 0 2.2 0 3.3 0 1.1-0.2 2.3-0.3 3.4-0.1 1.1-0.2 2.2-0.4 3.3-0.4 2.2-0.9 4.4-1.5 6.6l-1.1 3.2-1.3 3.1c-0.9 2.1-1.9 4.1-3.1 6q-1.8 2.8-3.8 5.5-2.1 2.6-4.4 5-2.3 2.3-4.9 4.4c-1.7 1.4-3.5 2.7-5.3 3.8-1.9 1.2-3.8 2.3-5.8 3.3z"/>
				</g>
				<g>
					<path class="s6" d="m415.2 536.5c-22.8 49.3-64.9 82.4-113.2 82.4-51.5 0-96.1-37.8-117.6-92.9 30-15.7 25.1-52.3 105.8-52.3 48 0 92.5 40.8 125 62.8z"/>
					<path class="s1" d="m416.8 536.1l-4.7 9.6c-1.6 2.8-3.2 5.6-4.8 8.4-1.7 2.8-3.5 5.4-5.2 8.2-1.8 2.6-3.8 5.2-5.7 7.8-2 2.5-4.1 4.9-6.2 7.4-2.1 2.5-4.4 4.7-6.6 7.1-2.3 2.3-4.8 4.4-7.1 6.6-2.5 2.1-5.1 4-7.6 6.1-2.6 1.8-5.3 3.7-8 5.4-2.8 1.6-5.5 3.4-8.4 4.9-5.8 2.9-11.7 5.5-17.9 7.4-3.1 1-6.2 2-9.4 2.6l-4.7 1c-1.6 0.3-3.2 0.4-4.8 0.7-1.6 0.2-3.2 0.4-4.9 0.6l-4.8 0.2c-1.7 0-3.2 0.2-4.9 0.1l-4.8-0.2c-1.6-0.1-3.2-0.1-4.8-0.3l-4.9-0.7c-1.6-0.2-3.2-0.3-4.8-0.7l-4.7-1.1c-3.2-0.6-6.3-1.7-9.3-2.7-3.2-0.9-6.1-2.3-9.1-3.5-3-1.2-5.8-2.8-8.7-4.3-2.9-1.4-5.6-3.3-8.3-5-2.8-1.6-5.3-3.7-8-5.6-2.6-1.8-5-4-7.4-6.1-2.5-2.1-4.8-4.4-7-6.7-2.4-2.2-4.5-4.7-6.6-7.1-1-1.3-2.1-2.5-3.1-3.7l-3-3.9-2.9-3.8-2.7-4.1c-1.8-2.6-3.6-5.3-5.1-8.1-1.6-2.9-3.4-5.6-4.7-8.5-1.4-2.9-2.9-5.7-4.2-8.7l-3.8-8.9-0.4-1 1-0.6c4.3-3.5 8.2-7 11.5-11.2 3.4-4.2 6.5-8.5 9.9-13 3.5-4.5 7.3-9 11.8-12.9 4.4-4.1 9.6-7.3 15-10 1.3-0.8 2.7-1.3 4-1.9l4.2-1.6c1.4-0.6 2.8-1 4.2-1.4l4.3-1.2c2.8-0.9 5.6-1.3 8.5-1.7 2.9-0.5 5.7-1.1 8.6-1.3l8.6-0.8c2.8-0.2 5.6-0.1 8.5-0.3l4.2-0.1h2.2 0.5 0.3 0.5 1.1c2.8 0.2 5.5 0.3 8.3 0.6l9 1.5 8.5 2.2c5.5 1.7 11 3.6 16.2 6 2.7 1 5.2 2.4 7.7 3.7 2.6 1.2 5.1 2.6 7.5 4 2.5 1.4 5 2.8 7.3 4.3 2.4 1.5 4.8 3 7.1 4.6 4.7 3.2 9.2 6.5 13.7 9.8 4.5 3.3 8.8 6.8 13.2 10.2 4.3 3.5 8.6 7 12.9 10.6 4.2 3.4 8.5 7 12.8 10.4zm-3.3 0.9c-4.5-2.7-8.9-5.4-13.3-8.2q-7-4.5-13.9-9.1l-6.9-4.5-6.9-4.5c-4.7-2.9-9.3-5.8-14.1-8.5-2.3-1.4-4.7-2.6-7.1-3.9-2.3-1.4-4.8-2.6-7.2-3.8-2.4-1.2-4.8-2.4-7.3-3.4-2.4-1.1-4.9-2.3-7.4-3.1-2.5-0.9-4.9-2-7.5-2.8-2.5-0.7-5-1.6-7.5-2.2l-7.7-1.7-7.4-1c-2.7-0.2-5.5-0.2-8.3-0.4l-1-0.1h-0.1c0.6 0.1 0.1 0 0.2 0.1h-0.3-0.5l-2 0.1-4 0.1c-2.7 0.1-5.4 0.1-8.1 0.4l-7.9 0.8c-2.7 0.1-5.3 0.7-7.9 1.2-2.5 0.5-5.2 0.8-7.6 1.6q-7.6 1.8-14.6 4.8l-3.5 1.6c-0.5 0.3-1.1 0.5-1.7 0.8l-1.6 1-3.2 1.9c-1.1 0.7-2.1 1.5-3.1 2.3-4.2 2.9-8 6.5-11.9 10.3-3.8 3.8-7.8 8-12.3 11.6-4.3 3.8-9.6 6.7-14.9 8.8l0.6-1.7 3.8 8.8c1.2 2.9 2.7 5.7 4.1 8.6 1.3 2.9 3.1 5.5 4.6 8.3 1.5 2.8 3.3 5.4 5.1 8.1l2.6 3.9 2.9 3.8 2.9 3.8c1 1.3 2.1 2.4 3.1 3.6 2.1 2.4 4.1 4.8 6.4 7 2.3 2.3 4.4 4.6 6.9 6.6 2.4 2 4.7 4.2 7.3 6 2.6 1.9 5 3.9 7.8 5.5 2.7 1.7 5.3 3.5 8.1 4.9 2.8 1.4 5.6 3 8.5 4.1 3 1.3 5.8 2.6 8.9 3.5 3 1 6 2 9.1 2.6l4.6 1.1c1.5 0.4 3.1 0.5 4.7 0.7l4.6 0.7c1.6 0.2 3.2 0.1 4.8 0.3l4.8 0.2c1.5 0.1 3.1-0.1 4.7-0.2l4.7-0.2c1.6-0.1 3.2-0.3 4.7-0.5 1.6-0.3 3.2-0.4 4.7-0.7l4.6-1c3.2-0.5 6.2-1.5 9.2-2.5 6-1.8 11.8-4.4 17.5-7.3 2.8-1.4 5.5-3.1 8.2-4.7 2.7-1.7 5.2-3.6 7.8-5.4 2.5-1.9 5-3.9 7.4-5.9 2.4-2.2 4.8-4.3 7-6.5 2.2-2.3 4.4-4.5 6.5-6.9 2-2.5 4.2-4.8 6.1-7.3 1.9-2.6 3.8-5.1 5.6-7.7 1.7-2.7 3.5-5.3 5.1-8.1 1.6-2.7 3.2-5.4 4.7-8.2z"/>
				</g>
				<path class="s0" d="m260.9 370.6c-6.4 0-11.6-9.6-11.6-21.6 0-11.9 5.2-21.5 11.6-21.5 6.4 0 11.5 9.6 11.5 21.5 0 12-5.1 21.6-11.5 21.6z"/>
				<path class="s1" d="m331.7 369.3c-6.7 0-12.1-9.4-12.1-21 0-11.6 5.4-21 12.1-21 6.7 0 12.1 9.4 12.1 21 0 11.6-5.4 21-12.1 21z"/>
				<g>
					<path class="s7" d="m259.1 537.9c-9.6 0-17.4-5.3-17.4-11.8 0-6.5 7.8-11.8 17.4-11.8 9.6 0 17.4 5.3 17.4 11.8 0 6.5-7.8 11.8-17.4 11.8z"/>
					<path class="s1" d="m279.5 526.3q0 0.1-0.1 1.1c-0.1 0.3-0.3 1.1-0.5 1.8-0.2 0.6-0.5 1.3-0.9 2-0.8 1.4-2.1 2.9-3.8 4.1-1.7 1.2-3.7 2.1-6 2.8-2.2 0.7-4.7 1.2-7.4 1.4q-1 0-2 0.1c-0.7-0.1-1.3 0-2-0.1-1.4-0.1-2.8-0.2-4.3-0.6-2.9-0.5-5.8-1.7-8.5-3.6-2.6-1.8-5.2-5.1-5.4-9.2v-1.3c0-0.4 0.1-1.1 0.2-1.6 0.2-1.1 0.5-2 1-2.9 0.8-1.7 2-3.3 3.3-4.5 2.6-2.5 5.8-4 8.8-4.9 3.1-0.8 6.4-1.2 9-1 3.2 0.1 5.7 0.9 8.2 1.9 4.8 2.1 8.1 5.8 9.4 9 0.7 1.5 1 2.9 1 3.9q0.1 1.4 0.1 1.4zm-6.2-0.2c-0.1 0 0-0.9-0.9-2.3-0.5-0.7-1.2-1.5-2.3-2.1-1.1-0.7-2.5-1.4-4.2-1.8-1.6-0.5-3.6-0.9-5.4-1-2.3-0.1-4.3-0.1-6.5 0.4-2.2 0.3-4.3 1.2-6.1 2.3q-1.3 0.9-2.2 2c-0.3 0.4-0.5 0.8-0.6 1.2-0.1 0.1-0.2 0.1-0.3 0.4v0.6l-0.1 0.2v0.2 0.1c0-0.1 0 0.2 0-0.2-0.3 1.7 0.6 3.8 2.3 5.5 1.7 1.7 4 2.9 6.4 3.7 1.1 0.3 2.4 0.5 3.5 0.7 0.6 0.1 1.3 0.1 1.9 0.2 0.5 0 1.2-0.1 1.7-0.1 2.4-0.1 4.5-0.7 6.3-1.5 3.6-1.7 5.6-4.3 6.1-6 0.2-0.4 0.3-0.8 0.3-1 0-0.3 0.1-0.4 0.1-0.7q0-1 0-1z"/>
				</g>
				<g>
					<path class="s7" d="m320 538.9c-10.8 0-19.5-5.1-19.5-11.4 0-6.3 8.7-11.4 19.5-11.4 10.9 0 19.6 5.1 19.6 11.4 0 6.3-8.7 11.4-19.6 11.4z"/>
					<path class="s1" d="m342 527.7q0 0-0.2 1.1c-0.1 0.5-0.3 1.2-0.5 1.9-0.3 0.6-0.6 1.3-1.1 1.9-2 2.9-5.8 5.2-10.5 6.7-2.3 0.7-5 1.3-7.8 1.5q-1 0.1-2.1 0.2c-0.7 0-1.4 0-2.2 0-1.5-0.1-3-0.2-4.6-0.4-3.1-0.5-6.3-1.3-9.4-3.2-1.5-0.9-3.1-2.1-4.3-3.7-1.3-1.6-2.3-3.8-2.3-6.2v-1.5c0.1-0.6 0.2-1.3 0.4-2q0.3-0.8 0.6-1.6c0.3-0.5 0.6-0.9 0.8-1.4 1.2-1.8 2.7-3.1 4.3-4.2 3-2.2 6.4-3.4 9.6-4.1 3.2-0.6 6.5-0.7 9.2-0.5 3.2 0.3 5.8 1 8.3 1.9 4.9 1.9 8.6 4.9 10.4 8 0.9 1.5 1.2 2.9 1.3 3.9 0.1 1 0.1 1.5 0.1 1.5zm-4.8-0.2c0 0 0-0.3-0.1-0.7-0.2-0.5-0.3-1.1-1-1.9-0.6-0.7-1.5-1.6-2.9-2.4-1.3-0.7-3-1.4-5-1.8-2-0.4-4.3-0.7-6.5-0.7-2.5 0-4.9 0.2-7.3 0.7-2.5 0.5-4.9 1.4-6.9 2.6-2 1.2-3.3 2.8-3.5 4.2-0.3 1.4 0.9 3.4 2.9 5 2 1.6 4.5 2.7 7.1 3.4 1.3 0.4 2.6 0.6 3.8 0.7 0.7 0.1 1.4 0.2 2.1 0.2 0.5 0.1 1.2 0.1 1.8 0.1 2.5-0.1 4.9-0.4 7-1 4.2-1.2 6.9-3.8 7.8-5.6 0.3-0.4 0.4-0.8 0.6-1.2 0-0.3 0.1-0.5 0.1-0.7q0-1.1 0-1.1z"/>
				</g>
				<g>
					<path class="s8" d="m399.1 259.9q0 0 0.5 0.4c0.3 0.3 0.8 0.7 1.4 1.3 1.2 1.1 2.7 2.9 4.3 5.3 0.7 1.2 1.6 2.5 2.2 4 0.8 1.5 1.3 3.2 1.9 5 0.3 0.9 0.4 1.8 0.6 2.8 0.1 1 0.4 2 0.4 3 0.1 2.1 0.2 4.2-0.3 6.3-0.2 1.1-0.2 2.2-0.6 3.2q-0.5 1.6-1.1 3.1c-0.1 0.5-0.3 1-0.5 1.5l-0.8 1.4q-0.8 1.4-1.6 2.7c-1.1 1.7-2.6 3-3.7 4.4-1.3 1.4-2.6 2.3-4 3.1-1.3 0.8-2.7 1.3-4 1.4-1.3 0.1-2.5 0-3.6-0.2-1-0.1-1.8-0.4-2.4-0.6q-0.9-0.4-0.9-0.4l-1.1-2.2q0 0 0.1-1c0.1-0.7 0.3-1.5 0.6-2.4 0.3-1 0.6-1.9 1.1-2.9 0.6-0.8 1-1.8 1.7-2.7q0.5-0.6 1.1-1.1c0.5-0.4 0.9-0.7 1.3-1.1 0.7-0.9 1.6-1.7 2.3-2.6q0.5-0.7 1-1.4c0.4-0.5 0.7-1 1-1.6l0.8-1.6c0.3-0.5 0.4-1.2 0.7-1.8 0.5-1.1 0.7-2.4 1-3.7 0.1-1.4 0.4-2.7 0.4-4.1q0.1-2.1-0.1-4.1c0-1.3-0.2-2.6-0.3-3.8q-0.3-1.8-0.5-3.3c-0.2-1-0.4-1.9-0.5-2.6q-0.2-1.1-0.4-1.7c0-0.4-0.1-0.7-0.1-0.7z"/>
				</g>
				<g>
					<path class="s8" d="m184.5 255.4q0 0 0-0.1c0-0.1 0.1-0.1 0.2-0.2l0.1-0.1h0.1v-0.1c0.1 0 0.2 0 0.3-0.1 0.5-0.2 1.3 0.3 1.5 0.6q0.1 0.3 0.1 0.5c0.1 0.2 0.1 0.4 0.1 0.5l-0.1 0.1v0.1q0 0.2 0 0.4 0 0.6 0 1.7c0 1.3 0 3.3 0.2 5.4 0.1 2.1 0.5 4.5 1.1 6.7 0.6 2.2 1.5 4.4 2.6 6.3 1.2 1.9 2.6 3.6 4.1 5.2 0.8 0.8 1.6 1.5 2.3 2.3 0.8 0.8 1.4 1.6 2 2.5 0.7 0.8 1.2 1.8 1.7 2.6 0.5 0.9 0.9 1.8 1.2 2.5 0.3 0.8 0.6 1.3 0.8 1.8 0.1 0.5 0.2 0.8 0.2 0.8l-1 2.3c0 0-0.3 0.1-0.8 0.2q-0.7 0.3-2 0.6c-0.9 0-2 0.2-3.1 0.1-1.1 0-2.4-0.2-3.7-0.6-1.3-0.5-2.7-1-4-1.9-1.4-0.9-2.7-2-3.9-3.3-2.4-2.6-4.7-5.9-6-9.6-1.4-3.7-1.9-7.7-1.5-11.2 0.3-3.6 1.3-6.6 2.5-9 1.1-2.4 2.4-4.1 3.4-5.2 0.5-0.6 0.9-1 1.1-1.3q0.1-0.1 0.2 0v0.1c0 0.1 0 0.3 0 0.4q0.1 0.2 0.2 0.4c0.1 0.4 0.9 0.8 1.4 0.6 0.1 0 0.2-0.1 0.3-0.1h0.1v-0.1c0.1 0 0.2-0.1 0.2-0.1h-0.1q0 0 0 0z"/>
				</g>
				<g>
					<path class="s6" d="m465.5 353.6q0 0.1-0.3 1.2c-0.2 0.8-0.6 1.6-1.1 2.8-0.4 0.9-1 2.2-1.7 3.3-0.7 1.1-1.6 2.2-2.5 3.1-1.9 1.9-4.2 2.9-6.9 3.1-2.6 0.3-5.5 0.4-8.3 0.2-5.8-0.3-11.7-1.8-16.1-3.9-1.2-0.5-2.2-1.1-3.1-1.6q-1.4-0.8-2.4-1.5-0.9-0.7-1.5-1.1-0.5-0.4-0.5-0.5l-0.1-1.2q0 0 0.5-0.5 0.5-0.5 1.3-1.3c1.2-1.1 2.8-2.5 4.7-3.9 1.9-1.4 4.2-2.8 6.7-4.1 2.4-1.3 5.1-2.3 7.7-3.1 2.7-0.9 5.4-1.5 8-1.8 2.5-0.6 5-0.1 7.3 1.2 1.1 0.6 2.2 1.5 3.2 2.3 0.9 0.8 1.8 2 2.5 2.7 0.8 1 1.4 1.7 1.8 2.4q0.7 1 0.7 1z"/>
				</g>
				<g>
					<path class="s6" d="m146.7 345.5c0 0 0.3-0.2 0.7-0.4 0.5-0.3 1.1-0.6 1.8-1.1 0.7-0.3 1.6-0.8 2.5-1.1 0.9-0.4 1.8-0.7 2.8-0.9 2-0.4 4.2-0.4 6.4 0.2 2.2 0.6 4.6 1.2 7 1.9 2.4 0.7 4.8 1.5 7.1 2.4 1.2 0.4 2.3 0.9 3.4 1.3 1.1 0.5 2.1 0.9 3 1.4 1.9 0.9 3.5 1.9 4.6 2.5 1.1 0.7 1.7 1.2 1.7 1.2v1.9c0 0-0.7 0.4-1.9 1-1.2 0.5-2.9 1.3-5 1.9-2.1 0.7-4.5 1.3-7.1 1.6-1.4 0.2-2.7 0.2-4.1 0.3-1.4 0.1-2.8 0.1-4.2 0q-2.1 0-4.2-0.3c-1.4-0.1-2.7-0.5-4-0.7-2.7-0.4-5-1.6-6.8-3.2-0.9-0.8-1.7-1.7-2.3-2.6-0.6-0.9-1.1-1.9-1.4-2.7-0.3-0.9-0.6-1.5-0.7-2.1-0.2-0.5-0.1-0.9-0.1-0.9z"/>
				</g>
			</g>
			<path class="s1" d="m476.3 729.2c0 0-13.2-9.9-18.7 1.1-5.5 10.9-12.1 21.9-11 30.7 1.1 8.7 12.1 0 18.7 9.8 6.6 9.9 14.2 14.3 14.2 14.3z"/>
			<path class="s1" d="m794.3 723.7c0 0 16.5 6.6 22 6.6 5.5 0 14.2 9.8 16.4 19.7 2.2 9.9-1.1 28.5-8.7 29.6-7.7 1.1-18.7-7.7-18.7-7.7z"/>
			<path class="s1" d="m339.1 710.5c0 0 17.6 16.5 17.6 23 0 6.6-2.2 16.5-7.7 22-5.5 5.5-18.6-7.7-18.6-7.7h-6.6"/>
			<path class="s0" d="m351.3 316.3c0 0 18.9-7.8 35.3 8.9 16.5 16.7 11.3 20.6 15.2 29.5 3.9 8.9-50.5-38.4-50.5-38.4z"/>
		</g>
	</g>
</svg>